<?xml version="1.0" standalone="no"?>
<!DOCTYPE svg PUBLIC "-//W3C//DTD SVG 20010904//EN"
 "http://www.w3.org/TR/2001/REC-SVG-20010904/DTD/svg10.dtd">
<svg version="1.0" xmlns="http://www.w3.org/2000/svg"
 width="484.000000pt" height="484.000000pt" viewBox="0 0 484.000000 484.000000"
 preserveAspectRatio="xMidYMid meet">
<metadata>
Created by potrace 1.11, written by Peter Selinger 2001-2013
</metadata>
<g transform="translate(0.000000,484.000000) scale(0.100000,-0.100000)"
fill="#000000" stroke="none">
<path d="M3338 4364 c-3 -5 -9 -45 -12 -89 -4 -44 -9 -98 -12 -120 -4 -41 -9
-109 -19 -270 -3 -49 -8 -115 -11 -145 -2 -30 -7 -84 -10 -120 -3 -36 -10 -83
-16 -105 -6 -22 -11 -43 -10 -47 1 -3 -5 -37 -13 -75 -8 -37 -16 -124 -19
-193 -3 -69 -8 -183 -11 -255 -3 -71 -8 -186 -10 -255 -12 -369 -19 -487 -29
-539 -3 -14 -8 -55 -12 -91 -8 -93 -10 -99 -40 -168 -8 -18 -12 -37 -10 -41 3
-4 0 -25 -6 -47 -6 -21 -12 -57 -13 -79 -1 -22 -6 -62 -10 -89 -4 -26 -9 -80
-10 -120 -2 -39 -4 -71 -5 -71 -1 0 -3 -11 -5 -25 -6 -53 -15 -116 -20 -135
-2 -11 -9 -37 -14 -57 -5 -21 -7 -38 -5 -38 3 0 0 -9 -6 -21 -7 -11 -13 -33
-15 -47 -1 -15 -6 -46 -10 -70 l-8 -42 -29 60 c-36 72 -64 93 -77 57 -5 -12
-16 -29 -24 -36 -9 -7 -21 -38 -27 -69 -24 -124 -38 -156 -73 -172 -17 -8 -33
-24 -35 -35 -2 -11 -16 -54 -32 -96 -16 -41 -30 -87 -32 -102 -6 -39 -13 -41
-37 -10 -32 44 -53 63 -62 57 -5 -3 -11 8 -14 23 -4 15 -10 37 -15 48 -5 11
-14 45 -21 75 -13 64 -52 151 -85 197 l-24 32 -27 -25 c-23 -21 -27 -22 -38
-8 -10 14 -15 12 -43 -20 -26 -30 -32 -33 -40 -20 -8 14 -12 11 -27 -17 -9
-19 -23 -53 -30 -75 -14 -48 -61 -114 -78 -111 -19 4 -89 -150 -90 -200 0 -15
-35 -12 -41 4 -3 7 -19 13 -35 13 -24 0 -31 6 -45 40 -10 26 -20 38 -30 34 -9
-4 -15 6 -20 33 -32 185 -41 221 -66 258 -29 44 -46 101 -55 184 -3 29 -7 56
-9 60 -4 7 -12 104 -22 266 -13 238 -29 363 -59 480 -13 50 -26 119 -29 155
-19 239 -40 411 -51 431 -6 8 -10 7 -16 -2 -12 -20 -21 -5 -26 43 -2 24 -8 72
-13 108 -5 36 -12 92 -15 125 -3 33 -11 78 -17 100 -12 44 -28 68 -28 45 -1
-24 -30 50 -30 75 0 12 -6 28 -14 34 -15 13 -23 -8 -30 -80 -2 -20 -5 -40 -8
-45 -3 -5 -6 -43 -7 -85 -1 -42 -4 -87 -6 -99 -2 -12 -7 -72 -11 -134 -3 -61
-8 -114 -10 -118 -2 -3 -7 -28 -10 -55 -5 -49 -22 -110 -36 -129 -4 -5 -10
-44 -13 -85 -5 -69 -7 -91 -20 -194 -9 -70 -33 -147 -53 -169 -16 -16 -21 -42
-27 -116 -8 -111 -43 -417 -51 -442 -3 -10 -10 -18 -15 -18 -5 0 -9 -9 -9 -19
0 -11 -7 -26 -15 -35 -8 -8 -15 -26 -15 -40 0 -14 -4 -28 -10 -31 -5 -3 -10
-17 -10 -31 0 -14 -9 -44 -20 -66 -11 -23 -20 -47 -20 -53 0 -6 -18 -28 -39
-48 -23 -21 -42 -51 -46 -70 -4 -17 -10 -36 -13 -42 -4 -5 -8 -18 -9 -28 -2
-9 -15 -50 -29 -90 -14 -39 -37 -105 -51 -145 -23 -68 -26 -72 -42 -58 -22 20
-31 20 -47 -1 -12 -17 -14 -17 -35 5 -14 16 -24 20 -29 13 -3 -7 -14 -9 -24
-5 -19 7 -41 -15 -57 -58 -7 -19 -18 -28 -32 -28 -12 0 -35 -14 -50 -32 -18
-21 -30 -29 -34 -21 -2 7 -21 20 -40 30 -34 16 -36 16 -50 -3 -8 -10 -19 -18
-24 -17 -5 2 -9 -3 -9 -11 0 -8 -7 -16 -15 -20 -8 -3 -15 -2 -15 3 0 5 -9 11
-20 14 -18 5 -20 0 -20 -44 l0 -49 2235 0 2235 0 0 75 c0 63 -4 81 -27 120
-31 50 -53 58 -53 20 0 -14 -7 -28 -16 -32 -8 -3 -20 -17 -26 -32 -9 -25 -10
-26 -24 -6 -10 14 -17 16 -22 8 -4 -6 -21 -13 -37 -15 -17 -2 -33 -7 -36 -11
-13 -17 -50 19 -60 58 -5 22 -23 83 -39 135 -17 52 -35 124 -41 160 -7 36 -18
77 -26 93 -7 15 -11 27 -8 27 3 0 -2 17 -11 38 -18 42 -30 101 -39 187 -14
134 -48 268 -76 299 -16 17 -17 17 -29 -18 -6 -19 -9 -40 -6 -45 4 -5 2 -13
-4 -16 -13 -8 -70 -130 -70 -150 0 -21 -51 -68 -74 -69 -12 -1 -22 -7 -22 -13
-1 -7 -3 -14 -4 -15 -1 -2 -4 -16 -6 -32 -5 -46 -10 -53 -42 -54 -22 0 -31 5
-35 19 -3 10 -9 19 -14 19 -21 0 -62 -57 -67 -94 -4 -21 -9 -43 -13 -50 -8
-11 -40 -121 -50 -168 -3 -15 -11 -32 -19 -39 -10 -8 -14 -5 -19 18 -4 15 -13
51 -21 79 -16 60 -20 89 -30 209 -4 50 -8 92 -9 95 -2 9 -18 233 -20 300 -6
124 -24 305 -39 375 -22 107 -27 189 -41 710 -8 303 -22 628 -30 705 -2 19 -6
62 -9 95 -11 118 -18 161 -36 235 -18 75 -22 104 -40 295 -23 255 -40 377 -59
438 -6 18 -13 43 -15 57 -6 31 -31 66 -38 54z"/>
</g>
</svg>
