<?xml version="1.0" standalone="no"?>
<!DOCTYPE svg PUBLIC "-//W3C//DTD SVG 20010904//EN"
 "http://www.w3.org/TR/2001/REC-SVG-20010904/DTD/svg10.dtd">
<svg version="1.0" xmlns="http://www.w3.org/2000/svg"
 width="1440.000000pt" height="1440.000000pt" viewBox="0 0 1440.000000 1440.000000"
 preserveAspectRatio="xMidYMid meet">
<metadata>
Created by potrace 1.11, written by Peter Selinger 2001-2013
</metadata>
<g transform="translate(0.000000,1440.000000) scale(0.100000,-0.100000)"
fill="#000000" stroke="none">
<path d="M8329 9250 c-1 -5 -2 -15 -3 -22 0 -7 -12 -15 -25 -18 -23 -5 -23 -6
-22 -139 2 -94 -1 -131 -9 -126 -31 19 -35 -13 -35 -254 l0 -241 -22 0 -23 0
0 -385 c0 -303 -3 -386 -12 -384 -7 1 -18 1 -23 0 -7 -1 -10 -140 -10 -406 l0
-405 -23 0 -23 0 1 -177 c0 -98 0 -228 0 -290 1 -109 0 -112 -22 -115 l-23 -3
0 -425 0 -425 -22 -3 c-21 -3 -22 -8 -25 -115 -3 -104 -4 -112 -23 -112 -17 0
-20 -7 -20 -65 0 -59 -2 -65 -22 -68 -21 -3 -23 0 -22 57 1 67 -5 83 -29 79
-14 -3 -17 7 -17 65 0 63 -1 67 -22 67 -18 0 -23 6 -23 26 0 21 -4 24 -20 19
-19 -6 -26 7 -21 38 0 4 -19 7 -43 7 -47 0 -56 9 -51 53 4 33 -24 48 -65 37
-24 -6 -25 -10 -26 -76 -2 -104 -2 -104 -25 -104 -11 0 -17 -4 -14 -10 3 -5 3
-10 -2 -10 -4 0 -7 -56 -6 -125 l2 -125 -45 0 -44 0 0 -69 c0 -64 -2 -70 -20
-66 -11 2 -21 0 -21 -6 -1 -5 -2 -15 -3 -21 -1 -9 -23 -14 -68 -16 -59 -3 -67
-5 -70 -24 -3 -23 -34 -34 -40 -15 -2 7 -4 38 -3 70 0 53 -1 57 -23 57 -13 0
-22 6 -21 13 3 26 -2 35 -18 33 -21 -1 -37 -22 -28 -36 4 -6 -22 -9 -65 -9
-76 1 -76 1 -70 67 1 20 -3 22 -44 22 l-46 0 0 -45 0 -45 -45 0 c-38 0 -45 -3
-45 -20 0 -11 -4 -21 -10 -21 -5 -1 -16 -2 -22 -3 -8 0 -14 -17 -14 -41 -1
-22 -2 -43 -3 -46 -1 -3 -21 -5 -46 -4 -40 3 -44 1 -42 -18 1 -16 -4 -23 -20
-25 -16 -2 -23 -10 -23 -26 0 -18 -5 -23 -22 -22 -21 1 -23 -3 -23 -45 1 -37
-2 -46 -15 -44 -8 2 -18 4 -22 4 -5 1 -8 10 -8 21 0 17 -7 20 -45 20 l-45 0 0
-45 0 -45 -68 0 -67 0 0 110 c0 61 -3 111 -7 111 -5 1 -14 2 -20 3 -9 1 -14
23 -16 68 -3 72 -8 78 -64 70 -19 -3 -28 -10 -28 -23 0 -17 -11 -24 -32 -20
-8 1 -9 -2 -12 -31 0 -7 -11 -14 -23 -16 -16 -2 -22 3 -25 20 -3 20 -9 23 -45
22 l-43 0 0 137 0 137 -24 -2 c-20 -3 -23 1 -20 20 4 20 0 24 -21 24 l-26 0 1
108 c3 247 2 250 -22 254 -22 3 -23 7 -23 113 0 103 -1 110 -20 110 -16 0 -21
8 -25 46 -4 36 -9 45 -22 44 -9 -2 -18 2 -20 8 -2 7 -4 98 -3 202 0 182 -1
190 -20 195 -17 5 -20 15 -22 64 -1 31 -4 63 -6 70 -3 7 -2 18 3 25 4 7 4 28
0 47 -4 19 -5 34 -1 34 3 0 6 20 6 45 0 25 -4 45 -8 45 -5 0 -6 4 -2 10 8 13
9 226 0 240 -4 6 -13 9 -21 6 -17 -7 -16 -21 -19 224 -3 253 -1 233 -25 227
-18 -5 -20 0 -21 41 0 26 0 69 1 96 2 46 0 48 -22 44 l-23 -4 0 135 0 135 -30
2 c-60 5 -62 2 -60 -91 1 -54 -3 -85 -9 -86 -6 0 -34 -1 -63 -2 -28 -1 -54 -5
-58 -9 -4 -3 -7 -54 -7 -113 1 -103 0 -106 -21 -103 l-22 3 -1 -290 c-1 -159
-2 -294 -3 -298 0 -5 -10 -6 -21 -2 -19 6 -20 0 -22 -222 -3 -220 -4 -228 -23
-228 -19 0 -20 -6 -19 -175 0 -134 -3 -177 -13 -183 -7 -4 -18 -5 -23 -2 -7 4
-10 -59 -10 -178 l0 -184 -22 1 -23 1 -1 -195 c-1 -107 -2 -198 -3 -202 0 -5
-10 -8 -21 -8 -17 0 -20 -7 -20 -44 0 -39 -3 -45 -22 -48 -22 -3 -23 -8 -24
-83 -2 -101 0 -95 -24 -95 -19 0 -26 -12 -20 -35 3 -11 2 -60 -1 -113 -2 -27
-6 -33 -21 -29 -17 5 -20 1 -22 -33 -1 -9 -10 -15 -24 -14 -17 1 -22 -4 -22
-22 0 -16 -7 -24 -22 -26 -13 -2 -24 -9 -24 -15 -1 -7 -2 -17 -3 -22 0 -6 -10
-8 -21 -6 -18 3 -20 -2 -20 -40 0 -24 -5 -47 -10 -50 -13 -8 -40 13 -37 28 1
6 -8 13 -20 15 -22 3 -23 8 -23 93 0 88 -1 90 -22 87 -16 -2 -22 -9 -20 -20 3
-16 -8 -23 -31 -19 -4 1 -12 -10 -17 -24 -10 -26 -35 -34 -42 -12 -2 6 -4 47
-3 90 l1 77 -43 0 c-27 0 -44 5 -44 13 -1 6 -2 26 -3 42 -1 29 -3 30 -46 30
-40 0 -45 -2 -43 -22 2 -18 -2 -21 -22 -17 -21 4 -25 1 -25 -21 0 -20 -5 -25
-23 -25 -23 0 -24 -3 -22 -65 1 -63 -2 -70 -32 -66 -8 1 -13 -9 -13 -23 0 -18
-6 -25 -22 -28 -13 -2 -25 -12 -28 -24 -3 -13 -12 -20 -22 -18 -16 2 -18 -7
-18 -67 0 -67 -1 -69 -26 -69 -21 0 -24 -4 -19 -20 4 -11 2 -21 -4 -21 -6 -1
-17 -2 -23 -3 -7 0 -15 -13 -18 -28 -4 -21 -9 -25 -19 -19 -8 5 -24 6 -35 1
-12 -4 -29 -4 -39 -1 -10 4 -34 5 -53 3 -27 -3 -34 -9 -34 -26 0 -20 -4 -21
-110 -21 -61 0 -111 3 -111 8 -1 4 -3 21 -4 37 -1 17 -3 34 -4 38 0 5 -16 8
-33 7 -45 -1 -56 4 -53 23 1 13 -8 18 -44 22 l-46 5 -1 75 c-1 102 -1 100 -28
100 -19 0 -22 4 -19 23 4 22 2 22 -86 22 -88 1 -91 0 -91 -22 0 -18 -6 -23
-26 -23 -21 0 -24 4 -19 20 4 11 2 21 -4 21 -6 1 -17 2 -23 3 -7 0 -14 11 -16
23 -3 18 -10 21 -48 21 l-44 0 0 -43 c0 -38 -3 -44 -22 -47 -15 -2 -23 -10
-23 -23 0 -29 -39 -27 -43 2 -3 20 -9 23 -47 23 l-44 0 -3 42 c-3 35 -7 43
-28 48 -14 4 -36 3 -48 -1 -18 -7 -21 -13 -14 -26 5 -10 6 -27 2 -38 -4 -11
-4 -32 1 -47 6 -22 4 -26 -11 -23 -21 4 -45 -19 -35 -35 4 -6 -11 -10 -43 -10
l-48 0 1 45 2 45 -47 0 -47 0 2 40 c2 35 -1 41 -22 46 -17 5 -23 12 -21 28 2
16 -2 21 -19 21 -13 0 -22 2 -21 5 4 14 -24 49 -36 44 -10 -4 -16 3 -18 18 -2
13 -7 23 -13 23 -22 0 -33 17 -30 43 4 34 -7 54 -26 50 -11 -2 -15 13 -17 64
-3 60 -5 67 -25 70 -14 2 -22 10 -22 23 0 14 -6 20 -23 19 -18 -1 -22 4 -22
26 0 24 -3 27 -25 22 -14 -2 -25 -9 -24 -16 3 -27 -3 -32 -44 -32 l-43 0 1 66
c1 58 -1 66 -19 70 -19 5 -21 14 -22 108 -2 99 -5 116 -25 118 -5 1 -12 2 -17
3 -4 0 -7 81 -7 179 0 170 -1 177 -20 177 -18 0 -20 8 -25 90 l-5 91 -40 0
-40 0 -5 158 c-3 86 -2 166 2 177 8 21 7 21 -52 24 -35 1 -40 -1 -40 -21 0
-19 -5 -22 -36 -20 -19 1 -39 -1 -44 -4 -5 -3 -10 -75 -12 -160 -2 -110 -6
-155 -15 -155 -22 0 -28 -17 -29 -88 -2 -98 -2 -96 -24 -92 -19 4 -20 -2 -20
-136 0 -106 -3 -139 -12 -138 -32 4 -34 -3 -33 -133 0 -126 -1 -133 -20 -133
-16 0 -21 -8 -25 -45 -4 -37 -9 -45 -25 -45 -19 0 -20 -7 -20 -175 0 -191 -1
-195 -58 -184 -25 4 -43 -18 -31 -37 3 -5 -17 -9 -45 -9 l-49 0 2 -32 c4 -44
-2 -58 -25 -58 -16 0 -19 -8 -19 -45 l0 -45 -71 0 c-64 0 -70 -2 -64 -19 4
-13 0 -20 -14 -24 -24 -6 -31 0 -31 25 0 16 -9 18 -89 18 -85 0 -90 1 -93 22
-4 31 -36 36 -40 6 -2 -15 -11 -24 -25 -26 -14 -2 -23 -11 -25 -25 -2 -18 -10
-22 -38 -22 -43 -1 -61 -11 -53 -30 4 -12 -8 -15 -67 -15 -40 0 -69 4 -66 9 4
5 4 15 1 23 -5 11 -37 14 -158 13 -150 0 -152 -1 -155 -23 -3 -16 -10 -22 -28
-22 -21 0 -24 -4 -19 -20 4 -11 2 -21 -4 -21 -6 -1 -17 -2 -23 -3 -7 0 -14
-11 -16 -23 -3 -20 -9 -23 -48 -23 -37 0 -44 -3 -44 -20 0 -20 -3 -22 -55 -23
-28 -1 -30 1 -33 40 -3 40 -28 66 -41 44 -5 -8 -7 -242 -2 -261 1 -4 14284 -5
14301 -1 3 0 5 49 5 109 0 103 -1 107 -23 110 -15 2 -22 10 -22 26 0 21 -4 22
-62 20 -80 -2 -76 -1 -74 -21 0 -11 -7 -19 -21 -21 -13 -2 -23 -11 -25 -25 -3
-21 -8 -22 -108 -22 -61 0 -106 -4 -108 -10 -17 -47 -52 -54 -52 -11 0 21 -4
22 -65 21 -38 -1 -66 3 -68 9 -2 6 -3 37 -2 69 2 53 1 57 -21 57 -20 0 -23 5
-24 38 -1 74 -5 97 -17 98 -7 1 -17 2 -21 3 -4 0 -7 30 -7 66 1 62 0 65 -22
65 -18 0 -23 6 -23 26 0 20 -4 24 -19 19 -24 -7 -28 6 -26 78 2 54 0 57 -22
57 -18 0 -23 6 -23 24 0 19 -4 24 -19 21 -20 -4 -36 19 -25 36 3 5 -6 9 -20 9
-24 0 -26 3 -26 45 l0 45 -45 0 c-42 0 -45 -2 -46 -27 -1 -16 0 -36 1 -46 1
-14 -4 -18 -22 -15 -22 3 -23 1 -23 -89 0 -90 -1 -93 -22 -93 -21 0 -23 -5
-23 -45 0 -42 -2 -45 -25 -45 -15 0 -25 -5 -24 -12 3 -28 -2 -39 -18 -36 -15
3 -18 -7 -21 -64 -3 -64 -4 -68 -27 -68 -18 0 -23 -4 -20 -20 4 -21 2 -22 -75
-24 -47 -2 -61 3 -59 23 1 9 0 21 -1 26 -1 6 -3 17 -4 25 0 8 -5 15 -11 15
-18 0 -36 16 -30 26 9 14 -36 27 -65 19 -16 -4 -25 -14 -25 -26 0 -16 -8 -19
-55 -20 -30 -1 -61 -2 -67 -3 -8 0 -13 -17 -13 -45 l0 -43 -37 2 c-21 2 -41 4
-45 4 -5 1 -8 30 -8 66 0 57 -2 65 -19 65 -10 0 -21 6 -23 13 -2 6 -4 87 -3
179 0 168 0 168 -22 168 -23 0 -23 0 -23 179 0 179 0 180 -22 183 -23 3 -23 6
-23 136 1 130 -1 137 -32 133 -12 -2 -18 12 -13 34 1 6 1 55 1 110 -1 55 -1
117 -1 138 1 20 -3 37 -7 36 -28 -5 -42 3 -38 21 3 16 -2 20 -21 20 -19 0 -24
5 -24 24 0 22 -3 23 -62 21 -35 -2 -65 -3 -68 -4 -3 0 -6 -49 -6 -108 0 -103
-1 -108 -22 -111 l-22 -3 0 -270 0 -269 -23 0 c-22 0 -23 -4 -22 -57 0 -32 4
-63 7 -69 4 -6 4 -14 0 -18 -4 -4 -8 -49 -8 -99 -2 -121 -1 -117 -24 -117 -19
0 -20 -7 -20 -90 0 -87 -1 -90 -23 -90 l-22 0 0 -177 0 -178 -68 -3 -68 -3 2
59 c2 66 -5 84 -29 80 -15 -3 -17 15 -18 167 -2 208 0 196 -21 193 -16 -3 -18
9 -21 109 -3 107 -4 112 -25 115 -21 3 -22 7 -22 131 0 112 -2 130 -17 138
-10 6 -19 6 -20 2 -1 -4 -4 44 -7 107 l-6 115 -42 -1 c-39 -1 -43 1 -43 22 0
16 -7 24 -22 26 -16 2 -22 9 -20 21 2 9 -2 18 -8 18 -40 5 -45 3 -42 -19 3
-17 -2 -22 -21 -22 -23 0 -23 -3 -22 -69 0 -43 -3 -67 -10 -65 -28 10 -34 -15
-37 -141 -2 -95 -6 -130 -15 -131 -7 -1 -17 -2 -21 -3 -4 0 -8 -70 -7 -153 0
-151 0 -153 -22 -156 -21 -3 -22 -8 -25 -115 -2 -81 -7 -112 -15 -113 -7 -1
-16 -2 -20 -3 -5 0 -8 -43 -8 -94 1 -125 1 -125 -49 -129 -41 -3 -41 -3 -41
-43 -1 -34 -4 -40 -24 -43 -18 -3 -22 -9 -19 -26 4 -18 0 -22 -21 -21 -22 0
-26 -4 -25 -27 1 -15 -3 -25 -9 -21 -5 3 -36 5 -68 4 -56 -1 -59 0 -59 23 0
19 -4 24 -20 21 -19 -4 -24 5 -21 33 1 7 -9 12 -24 12 -18 0 -25 5 -25 19 0
10 -7 22 -16 25 -21 8 -25 4 -27 -23 -1 -20 -6 -22 -47 -19 -38 3 -45 6 -42
23 2 17 -4 20 -43 21 -25 1 -46 -3 -46 -8 -1 -4 -2 -14 -3 -20 0 -7 -11 -14
-23 -16 -15 -2 -23 -10 -23 -23 0 -17 -10 -23 -26 -16 -9 4 -26 -32 -19 -43 3
-6 -5 -10 -19 -10 -24 0 -26 -3 -26 -45 l0 -45 -200 0 c-126 0 -200 4 -201 10
-1 6 -2 16 -3 22 0 8 -16 13 -36 13 -41 0 -63 12 -56 30 5 14 -46 26 -64 15
-6 -4 -24 -5 -40 -2 -20 3 -30 10 -32 26 -2 11 -9 22 -15 22 -7 1 -17 2 -22 3
-6 0 -8 10 -6 21 3 16 -2 20 -21 20 -22 0 -24 4 -24 45 l0 45 -90 0 c-88 0
-90 1 -90 23 0 21 -4 23 -45 22 -41 -1 -45 1 -45 22 0 18 -6 23 -24 23 -19 0
-24 4 -21 20 2 11 0 21 -6 21 -5 1 -15 2 -21 3 -7 0 -14 11 -16 24 -2 13 -10
22 -22 22 -23 0 -26 12 -25 82 0 51 -2 57 -19 55 -15 -1 -21 5 -23 23 -7 65
-8 65 -51 64 l-42 -2 0 49 c0 42 -2 47 -19 44 -25 -5 -28 7 -26 78 2 53 1 57
-21 57 -16 0 -24 7 -26 23 -2 12 -8 22 -15 22 -23 0 -28 19 -28 118 0 98 -1
102 -23 105 -21 3 -22 7 -22 116 0 111 0 113 -22 112 l-23 -1 0 334 0 334 -22
8 c-19 7 -23 16 -23 52 0 41 -2 44 -23 40 l-22 -4 0 180 0 181 -22 0 -23 0 0
180 c0 173 -1 180 -20 180 -21 0 -22 4 -24 55 -1 23 -6 31 -23 33 -19 3 -22
11 -25 50 -2 37 -6 46 -19 44 -17 -2 -33 23 -24 38 2 4 -7 8 -20 8 -23 0 -25
-4 -25 -44 0 -41 -6 -49 -32 -45 -9 1 -10 -6 -12 -59 -1 -26 -6 -34 -18 -32
-24 4 -31 -13 -32 -77 -1 -48 -4 -56 -21 -59 -20 -3 -20 3 -20 245 0 241 -1
248 -20 248 -19 0 -20 8 -23 138 -3 135 -3 137 -25 137 -23 0 -23 0 -22 178 0
176 0 177 -22 180 -22 3 -23 7 -23 120 -2 574 -4 647 -22 644 -19 -3 -19 -2
-23 68 -1 25 -3 51 -4 58 0 6 -10 12 -21 12 -17 0 -20 7 -20 45 0 38 -3 45
-20 45 -11 0 -21 -4 -21 -10z"/>
</g>
</svg>
