<?xml version="1.0" standalone="no"?>
<!DOCTYPE svg PUBLIC "-//W3C//DTD SVG 20010904//EN"
 "http://www.w3.org/TR/2001/REC-SVG-20010904/DTD/svg10.dtd">
<svg version="1.0" xmlns="http://www.w3.org/2000/svg"
 width="487.000000pt" height="487.000000pt" viewBox="0 0 487.000000 487.000000"
 preserveAspectRatio="xMidYMid meet">
<metadata>
Created by potrace 1.11, written by Peter Selinger 2001-2013
</metadata>
<g transform="translate(0.000000,487.000000) scale(0.100000,-0.100000)"
fill="#000000" stroke="none">
<path d="M3382 4558 c-6 -29 -16 -100 -22 -158 -6 -58 -13 -123 -15 -145 -3
-22 -7 -76 -10 -120 -3 -44 -8 -97 -10 -119 -2 -21 -7 -104 -10 -185 -3 -80
-8 -168 -10 -194 -3 -27 -7 -119 -10 -205 -4 -87 -9 -168 -12 -182 -3 -14 -7
-36 -8 -50 -11 -105 -17 -186 -20 -250 -1 -41 -5 -113 -9 -160 -3 -47 -9 -127
-12 -179 -3 -52 -7 -98 -10 -103 -3 -4 -7 -56 -10 -115 -3 -59 -8 -115 -10
-123 -3 -8 -7 -55 -10 -105 -3 -49 -9 -119 -14 -155 -5 -36 -12 -99 -16 -140
-3 -41 -7 -91 -9 -110 -1 -19 -6 -120 -9 -225 -6 -176 -26 -390 -37 -390 -1 0
-3 -9 -5 -20 -15 -89 -26 -156 -31 -190 l-6 -40 -14 50 c-7 28 -20 95 -28 150
-18 124 -32 174 -55 200 -10 11 -25 34 -33 50 -17 33 -22 27 -31 -40 -3 -22
-7 -51 -10 -65 -2 -14 -7 -50 -10 -80 -3 -30 -9 -80 -12 -110 -4 -30 -5 -57
-3 -59 2 -2 -6 -7 -18 -12 -14 -5 -23 -17 -23 -29 0 -24 1 -20 -14 -72 -8 -27
-22 -47 -37 -55 -13 -7 -27 -20 -30 -30 -6 -15 -8 -14 -9 7 -4 96 -24 165 -40
140 -5 -7 -6 -20 -2 -28 4 -12 1 -14 -12 -9 -10 4 -20 7 -22 7 -2 0 -4 6 -4
14 0 28 -21 69 -29 60 -8 -8 -19 -64 -21 -99 0 -5 -5 -4 -12 3 -16 16 -28 15
-28 -2 0 -8 -5 -16 -10 -18 -6 -2 -12 -17 -15 -33 -2 -17 -13 -70 -23 -120
-16 -78 -19 -86 -25 -58 -8 43 -37 35 -38 -11 0 -28 -1 -29 -9 -9 -5 12 -14
54 -20 95 -6 40 -13 89 -16 108 -8 47 -21 59 -30 26 -8 -32 -24 -34 -25 -3 0
12 -2 30 -4 40 -7 38 -17 143 -16 168 1 34 -25 70 -38 51 -11 -18 -18 23 -26
158 -4 58 -9 116 -12 130 -3 14 -9 50 -13 80 -13 89 -21 133 -30 160 -9 26
-16 96 -26 260 -3 52 -7 97 -10 101 -2 4 -7 38 -10 76 -3 37 -7 79 -10 93 -6
39 -23 233 -29 350 -3 58 -10 134 -15 170 -5 36 -12 107 -15 159 -3 52 -9 99
-13 105 -5 6 -10 29 -11 50 -2 22 -8 45 -15 52 -11 10 -39 127 -50 209 -12 89
-35 115 -38 43 -2 -61 -2 -60 -21 -88 -9 -13 -17 -43 -18 -65 -1 -22 -4 -51
-9 -65 -7 -24 -7 -23 -13 10 -4 19 -8 49 -9 65 -2 17 -7 30 -11 30 -14 0 -37
-77 -35 -118 1 -21 -4 -42 -10 -46 -6 -3 -11 -15 -11 -26 0 -11 -2 -36 -5 -55
-7 -40 -13 -102 -21 -215 -4 -44 -8 -96 -11 -115 -2 -19 -6 -69 -9 -110 -3
-41 -8 -93 -11 -115 -10 -72 -13 -109 -18 -191 -3 -45 -8 -87 -10 -95 -3 -8
-7 -45 -10 -83 -4 -37 -8 -71 -10 -75 -3 -4 -7 -34 -11 -66 -4 -33 -10 -76
-15 -95 -5 -19 -10 -55 -12 -80 -2 -25 -7 -48 -11 -51 -5 -4 -10 -19 -12 -35
-2 -16 -8 -65 -14 -109 -6 -44 -13 -111 -16 -150 -8 -109 -15 -179 -20 -195
-6 -23 -13 -69 -20 -135 -10 -100 -15 -129 -24 -135 -4 -3 -8 -25 -8 -50 -1
-58 -11 -130 -28 -202 -7 -31 -10 -59 -7 -62 3 -3 1 -6 -5 -6 -6 0 -14 26 -17
58 -10 79 -15 92 -32 85 -10 -4 -14 2 -14 22 0 31 -20 117 -30 128 -7 8 -30
-89 -30 -129 0 -12 -8 -30 -17 -40 -9 -9 -18 -30 -19 -47 -2 -17 -5 -41 -9
-54 -3 -13 -8 -42 -10 -66 -8 -61 -19 -97 -30 -97 -5 0 -10 3 -11 8 0 4 -6 25
-12 47 -12 44 -17 71 -27 158 -7 61 -16 71 -32 35 -11 -23 -11 -22 -18 7 -19
82 -22 82 -40 -2 l-12 -58 -13 48 c-8 30 -16 45 -22 39 -9 -9 -28 -72 -30 -99
-2 -19 -18 -16 -18 2 0 9 -7 18 -15 21 -9 4 -15 19 -15 40 0 19 -11 61 -25 93
-13 32 -25 77 -27 100 -1 23 -5 44 -9 47 -4 2 -10 23 -14 47 -6 38 -23 88 -44
126 -13 25 -31 24 -32 -1 -2 -43 -29 86 -35 167 -3 44 -9 84 -13 90 -14 18
-31 103 -31 157 0 46 -11 135 -24 203 -2 11 -7 53 -11 93 -7 68 -15 85 -30 62
-20 -33 -31 14 -40 170 -3 47 -8 95 -10 108 -6 24 -25 31 -25 8 0 -8 -4 -16
-9 -18 -14 -4 -20 -47 -27 -183 -11 -249 -10 -240 -37 -240 -7 0 -13 -18 -14
-40 -3 -48 -23 -228 -28 -252 -1 -10 -6 -47 -10 -83 -9 -86 -12 -100 -24 -114
-5 -6 -13 -45 -16 -86 -7 -77 -30 -246 -39 -289 -3 -14 -11 -28 -17 -31 -6 -4
-17 -42 -24 -85 -13 -73 -28 -101 -47 -89 -4 3 -8 -3 -9 -13 0 -13 -3 -11 -10
7 -5 14 -18 31 -29 38 -17 11 -20 9 -26 -16 -3 -15 -10 -36 -15 -47 -5 -11 -8
-83 -7 -160 l3 -140 2230 -3 2230 -2 -1 228 c0 126 -4 234 -8 240 -3 6 -3 13
1 15 5 3 7 36 6 74 -2 95 -2 93 -12 93 -15 0 -26 -75 -47 -320 -4 -47 -8 -89
-9 -95 -1 -5 -3 -19 -4 -30 -5 -58 -30 68 -46 235 -3 30 -10 91 -16 135 -12
94 -27 229 -34 300 -5 50 -12 103 -21 160 -3 17 -7 57 -9 90 -8 97 -26 195
-36 195 -5 0 -9 -6 -10 -12 0 -7 -2 -22 -5 -33 -2 -11 -6 -33 -8 -50 -2 -16
-9 -52 -16 -80 -6 -27 -14 -72 -16 -100 -3 -27 -11 -102 -19 -165 -8 -63 -17
-133 -20 -155 -2 -22 -9 -74 -15 -115 -6 -41 -13 -98 -14 -126 -2 -28 -5 -55
-9 -60 -3 -5 -6 -41 -8 -79 -1 -39 -6 -80 -10 -92 -4 -12 -9 -42 -10 -67 -4
-70 -16 -75 -29 -12 -6 31 -15 54 -19 51 -5 -2 -12 -26 -15 -52 -17 -112 -21
-120 -30 -66 -8 46 -37 136 -45 143 -12 10 -61 121 -61 138 0 10 -4 22 -9 27
-5 6 -12 46 -16 90 -4 44 -11 88 -17 98 -5 11 -14 61 -19 113 -5 57 -15 104
-25 119 -9 14 -21 47 -26 73 -8 43 -12 77 -22 199 -2 22 -6 45 -10 51 -3 5 -8
70 -11 143 -6 150 -14 306 -20 359 -2 19 -4 60 -6 90 -1 30 -8 62 -15 71 -8 8
-15 24 -17 35 -1 10 -6 24 -10 30 -9 15 -14 49 -32 219 -9 77 -19 165 -24 195
-5 30 -10 78 -10 107 -1 28 -5 53 -11 55 -5 2 -18 35 -28 74 -33 124 -62 171
-62 98 0 -30 -2 -34 -14 -25 -10 9 -15 8 -19 -3 -6 -15 -24 -201 -31 -325 -2
-34 -9 -68 -15 -74 -6 -6 -12 -7 -12 -1 -1 5 -3 21 -4 35 -19 157 -27 241 -31
334 -10 217 -21 317 -34 325 -9 6 -14 35 -15 90 -2 45 -7 85 -13 89 -5 3 -13
47 -17 96 -4 50 -11 113 -16 140 -5 28 -11 64 -14 80 -2 17 -9 64 -15 105 -16
107 -18 133 -26 345 -6 180 -10 259 -13 279 0 4 -8 6 -16 2 -10 -3 -15 1 -16
12 -2 65 -10 135 -15 144 -5 7 -12 5 -21 -7 -12 -17 -13 -17 -13 -2 0 36 -17
14 -28 -35z"/>
</g>
</svg>
