<?xml version="1.0" standalone="no"?>
<!DOCTYPE svg PUBLIC "-//W3C//DTD SVG 20010904//EN"
 "http://www.w3.org/TR/2001/REC-SVG-20010904/DTD/svg10.dtd">
<svg version="1.0" xmlns="http://www.w3.org/2000/svg"
 width="493.000000pt" height="493.000000pt" viewBox="0 0 493.000000 493.000000"
 preserveAspectRatio="xMidYMid meet">
<metadata>
Created by potrace 1.11, written by Peter Selinger 2001-2013
</metadata>
<g transform="translate(0.000000,493.000000) scale(0.100000,-0.100000)"
fill="#000000" stroke="none">
<path d="M3535 4572 c-35 -25 -40 -62 -59 -392 -11 -194 -18 -270 -27 -276 -5
-3 -9 -15 -9 -27 -1 -20 -2 -21 -14 -4 -7 9 -16 17 -18 17 -7 0 -15 -39 -28
-129 -5 -35 -13 -68 -18 -75 -5 -6 -12 -33 -16 -61 -4 -27 -9 -63 -12 -80 -7
-41 -12 -98 -24 -245 -6 -69 -12 -136 -15 -150 -10 -50 -17 -137 -20 -240 -1
-58 -5 -154 -9 -215 -3 -60 -8 -164 -12 -230 -3 -66 -7 -122 -9 -125 -3 -5
-15 -139 -20 -225 -16 -279 -20 -327 -41 -417 -1 -5 -2 -17 -3 -29 0 -11 -5
-18 -10 -15 -13 8 -28 -14 -35 -54 -3 -19 -8 -46 -11 -60 -2 -14 -7 -51 -11
-82 -4 -32 -12 -62 -19 -68 -8 -7 -12 -6 -12 3 -8 112 -17 197 -30 262 -18 97
-29 197 -37 330 -12 199 -28 306 -50 324 -7 6 -19 38 -26 71 -7 33 -17 60 -21
60 -5 0 -9 -6 -9 -13 0 -7 -9 -29 -20 -50 -11 -20 -18 -37 -16 -37 3 0 0 -14
-5 -32 -5 -18 -11 -50 -14 -72 -5 -43 -8 -54 -18 -96 -10 -41 -15 -88 -22
-220 -12 -216 -13 -233 -20 -310 -4 -41 -11 -83 -16 -92 -9 -16 -16 -73 -23
-173 -2 -27 -7 -86 -11 -130 -4 -44 -7 -87 -7 -95 -1 -8 -6 -22 -13 -30 -14
-17 -46 -97 -43 -108 4 -17 -15 -119 -28 -143 -7 -15 -10 -29 -7 -33 4 -3 1
-6 -5 -6 -5 0 -12 6 -15 13 -2 6 -12 -4 -22 -23 -10 -20 -20 -29 -23 -22 -3
10 -7 10 -18 1 -11 -9 -17 -2 -33 33 -26 56 -61 174 -61 207 -1 14 -10 42 -20
61 -43 79 -57 121 -60 183 0 5 -10 7 -22 5 -25 -3 -53 -52 -61 -107 -9 -52
-25 -60 -32 -15 -3 22 -10 57 -15 79 -8 36 -22 132 -35 243 -2 23 -8 50 -13
60 -5 9 -17 69 -27 132 -9 63 -22 126 -27 140 -6 14 -14 54 -18 89 -7 49 -15
70 -36 92 -27 29 -58 37 -68 20 -8 -12 -36 -147 -41 -191 -2 -19 -6 -69 -10
-110 -4 -41 -8 -84 -10 -95 -2 -11 -4 -37 -4 -58 -1 -23 -5 -36 -11 -32 -6 3
-12 0 -14 -7 -7 -26 -28 -174 -32 -223 -18 -283 -62 -492 -95 -458 -4 4 -13
54 -19 110 -6 56 -13 112 -15 124 -3 13 -7 75 -10 138 -10 193 -31 550 -39
656 -4 50 -15 224 -22 365 -4 86 -12 192 -19 265 -5 47 -8 92 -20 268 -10 138
-16 222 -20 272 -9 96 -18 244 -30 480 -3 61 -10 148 -15 195 -5 47 -12 121
-15 165 -6 87 -32 246 -46 283 -20 53 -34 4 -54 -188 -4 -41 -9 -93 -10 -115
-8 -133 -15 -255 -20 -365 -6 -135 -11 -220 -21 -345 -3 -44 -7 -120 -9 -170
-1 -49 -5 -124 -9 -165 -4 -41 -9 -122 -12 -180 -2 -58 -6 -118 -8 -135 -13
-110 -16 -138 -21 -210 -7 -93 -13 -150 -20 -185 -2 -14 -7 -56 -11 -95 -3
-38 -7 -81 -9 -95 -4 -36 -13 -151 -21 -250 -8 -105 -9 -110 -29 -240 -3 -14
-7 -40 -10 -58 -9 -62 -36 -157 -51 -179 -8 -12 -14 -29 -14 -37 0 -39 -44
-24 -61 21 -12 33 -28 28 -45 -15 -8 -20 -30 -68 -48 -107 -19 -38 -40 -87
-47 -108 -10 -29 -18 -37 -31 -34 -21 6 -58 -36 -58 -64 0 -10 -4 -20 -9 -23
-5 -3 -12 -26 -15 -51 -4 -25 -13 -57 -20 -71 l-14 -25 -21 27 c-11 15 -21 34
-21 43 0 29 -50 215 -69 256 -19 41 -33 111 -51 245 -16 117 -57 157 -86 82
-8 -20 -19 -45 -25 -55 -5 -10 -23 -79 -38 -153 -16 -74 -34 -141 -41 -149 -6
-8 -9 -18 -6 -24 3 -5 2 -11 -3 -13 -6 -1 -12 -14 -15 -28 -3 -14 -7 -36 -10
-49 -3 -13 -8 -49 -11 -80 -14 -124 -36 -188 -81 -232 -19 -18 -34 -38 -34
-43 -1 -21 -47 -67 -68 -69 -17 -1 -22 -8 -22 -29 l0 -27 2230 0 2230 0 1 24
c4 77 2 85 -19 85 -10 0 -23 -5 -29 -11 -14 -14 -39 65 -48 146 -19 176 -63
336 -95 347 -12 4 -20 87 -34 368 -9 166 -17 223 -33 242 -13 14 -26 94 -56
353 -14 113 -21 146 -33 156 -11 9 -14 8 -14 -6 0 -10 -2 -16 -5 -13 -3 2 -7
42 -10 89 -3 46 -10 122 -15 169 -11 106 -17 171 -35 380 -18 203 -24 252 -36
264 -21 22 -22 13 -34 -219 -9 -186 -20 -323 -28 -355 -7 -27 -17 -104 -22
-165 -2 -33 -6 -76 -9 -95 -3 -19 -7 -78 -11 -130 -19 -311 -25 -356 -47 -352
-17 3 -30 -44 -33 -118 -1 -19 -7 -69 -13 -110 -14 -91 -21 -155 -27 -235 -6
-90 -14 -156 -25 -195 -5 -19 -12 -56 -15 -83 -8 -57 -18 -54 -34 10 -7 27
-21 63 -32 81 -32 56 -54 163 -64 312 -5 78 -35 487 -55 760 -17 220 -20 266
-25 370 -5 108 -15 379 -20 530 -7 195 -18 323 -40 455 -13 77 -26 169 -29
205 -13 143 -18 197 -21 246 -2 27 -8 86 -14 130 -6 43 -13 115 -17 159 -3 44
-8 94 -9 110 -2 17 -7 66 -10 110 -9 112 -25 215 -35 215 -4 0 -12 -17 -17
-37 l-10 -38 -8 38 c-7 38 -12 42 -30 29z"/>
</g>
</svg>
